<svg width="109" height="107" viewBox="0 0 109 107" fill="none" xmlns="http://www.w3.org/2000/svg">
<path d="M19.19 75.9012L0 56.784C25.2167 49.2625 34.098 54.7469 45.9927 59.4479C52.6537 61.7984 63.7553 61.6417 69.6234 63.9921L43.9309 71.2002L19.19 75.9012Z" fill="#EFCD8E"/>
<path d="M62.5529 67.9113L64.5551 23.1126L45.3912 41.8739C45.8917 22.4707 61.1228 21.472 61.1228 20.9013H36.5243C49.8962 8.20358 59.6927 16.4072 61.1228 16.4072L44.9622 0C58.4627 0.741888 62.5529 4.63681 66.1998 16.4072C71.9919 -0.927352 78.5706 1.28405 87.5805 8.70794e-06L71.3483 16.4072C75.4958 14.3384 77.3549 14.1244 79.5002 13.8391C81.2163 13.6108 84.6798 13.7781 85.7213 14.1244C89.1537 15.2658 93.897 19.1892 95.8753 20.9013H71.3483C79.4371 23.6029 82.9624 26.7297 84.6849 30.2462C86.4191 33.7866 86.3261 37.722 87.223 42.0165L67.8445 22.8273L69.7752 67.9113H62.5529Z" fill="#EFD6A8"/>
<path d="M19.0625 75.5822L15.4078 72.0752C50.8425 69.0464 69.116 61.3948 71.9762 60.2789C98.1947 48.9609 105.61 47.3668 109 47.3668L80.5568 75.901L19.0625 75.5822Z" fill="#FDE7BC"/>
<path d="M79.325 78.1833C53.1716 84.3658 42.6157 84.3658 27.9635 84.3658L50.3357 106.718L79.325 78.1833Z" fill="#EFD6A8"/>
<circle cx="15.6939" cy="17.4061" r="15.1231" fill="#FFF1D4"/>
</svg>
